<svg width="92" height="79" viewBox="0 0 92 79" fill="none" xmlns="http://www.w3.org/2000/svg">
<path d="M12.6457 70.5033V63.7543C12.6457 62.799 12.4966 61.5444 13.7014 61.6427C18.3384 62.0213 22.8161 62.9904 27.2488 64.366C28.5532 64.7709 29.83 65.2379 31.1166 65.6882C31.8285 65.9374 32.5609 65.7566 33.2577 65.9743C33.8069 66.1459 34.3231 66.4359 34.8858 66.5565C36.0104 66.7975 35.534 67.9934 35.3397 68.9246C34.8844 71.1062 34.4911 73.6615 34.4911 75.9005C34.4911 76.8772 34.2031 76.746 33.2479 76.7195C32.0799 76.687 30.848 75.8823 29.7056 75.6538C29.0203 75.5168 27.5645 75.1225 27.5645 74.4106C27.5645 73.5907 27.9098 72.6341 27.7322 71.8353C27.6061 71.2675 26.8621 71.3299 26.4199 71.1742C25.2844 70.7744 24.1701 70.3121 22.9862 70.1086C22.3138 69.993 18.0526 68.2167 17.9837 69.3192C17.9119 70.4671 18.0198 71.6239 17.9738 72.7727C17.9375 73.6804 13.3791 71.8623 12.6457 71.5689M13.5337 62.1558C13.5337 60.951 16.7102 60.6141 17.5495 60.3699C19.9793 59.6631 22.4704 59.0639 24.8807 58.3275C26.5872 57.806 28.4708 57.4391 30.1102 56.7685C31.4647 56.2144 32.8762 55.567 34.3135 55.2687C35.2103 55.0826 35.8333 54.3151 36.721 54.1537C37.7846 53.9604 38.7686 53.3101 39.8291 53.098C40.7385 52.9161 42.1421 52.7589 42.878 52.2494C43.4844 51.8296 45.7125 52.21 46.5288 52.21C48.7388 52.21 50.8543 52.1866 53.0311 52.5652C53.7739 52.6943 54.6194 52.6251 55.3301 52.8414C56.0787 53.0693 56.7007 53.3667 57.5009 53.4532C57.6018 53.4641 60.345 53.9345 60.3426 53.9465C60.2704 54.3072 59.2906 54.3296 59.0401 54.3807C57.9908 54.5948 56.7771 54.9065 55.784 55.3082C53.3947 56.2746 51.0514 57.3678 48.6403 58.3176C46.1732 59.2895 43.6231 60.3637 41.3684 61.7809C40.3111 62.4455 39.1657 63.0629 38.1814 63.8332L38.1492 63.8584C37.312 64.5138 35.7864 65.708 34.6687 65.708M33.9583 61.0902C35.795 61.0902 37.6532 61.2678 39.4641 61.2678M41.4177 58.2485C42.7881 58.2846 44.1593 58.5574 45.5026 58.7813M47.8115 56.4725H50.8308M37.8656 53.098C37.0126 52.2899 36.9397 50.6926 36.7605 49.6051C36.4213 47.5463 36.2003 45.5045 36.0106 43.4284C35.7706 40.8017 35.7343 38.2298 35.7343 35.594C35.7343 32.2077 36.2071 29.0183 37.1749 25.7665C37.5804 24.4041 37.8307 22.9975 38.2603 21.6421C38.6223 20.4997 39.2325 19.4414 39.4246 18.2479C39.7424 16.2727 40.8323 14.2965 41.6743 12.4856C42.2685 11.2073 42.9771 9.8013 43.9831 8.79531C45.3739 7.40449 46.9842 6.08389 48.6009 4.96693C50.898 3.37978 54.4346 3.32232 57.0766 2.93433C59.0115 2.65019 60.9738 2.54494 62.8981 2.20418C64.1885 1.97568 65.4719 1.66485 66.7857 1.60229C69.6717 1.46486 72.6326 1.49925 75.5179 1.60229C78.6172 1.71298 80.8701 3.09776 82.711 5.48001C84.3547 7.60726 85.6879 9.87572 86.7959 12.3474C87.4985 13.9147 88.3609 15.6597 88.7298 17.3401C88.994 18.5436 89.0094 19.8562 89.1936 21.0797C89.448 22.7698 89.6606 24.4723 89.7264 26.1809C89.7929 27.9097 90.2592 29.5751 90.2592 31.3512V46.5266C90.2592 48.4289 88.6831 48.9908 87.1314 49.8123C85.4079 50.7247 83.5564 51.307 81.744 52.0225C79.3204 52.9791 76.9646 54.2563 74.4523 54.9628C72.5776 55.4901 70.678 56.4725 68.6999 56.4725C67.4208 56.4725 66.2837 56.8277 64.9603 56.8277H58.6454M64.8616 48.4802C64.0857 44.4639 63.9365 40.495 63.7565 36.4228C63.5788 32.4027 63.2632 28.4737 63.2632 24.4443V18.1492C63.2632 16.0994 63.9665 14.0512 64.7728 12.1698C65.8756 9.59656 68.6094 9.02911 70.8903 7.97635C72.8941 7.05153 75.5317 6.40152 77.294 8.16382M72.8539 22.3722C71.1549 22.9839 70.6263 25.839 70.5549 27.3748C70.4523 29.5808 70.5467 31.3909 72.2322 32.9299C73.537 34.1211 75.1869 34.8046 76.9585 34.8046C79.0916 34.8046 79.9984 33.0702 80.7573 31.2328C81.64 29.0957 82.1652 26.3801 81.8723 24.0694C81.6146 22.037 79.5817 20.4865 77.8268 19.7476C76.7465 19.2927 74.9191 19.8226 73.959 20.4186C72.3984 21.3872 71.474 22.4223 70.545 23.9707M42.1281 27.1676H45.8973C46.6454 27.1676 48.7327 27.4938 49.331 26.99C49.9715 26.4507 51.2499 26.9668 52.074 26.7729C52.732 26.6181 53.3489 26.6348 54.0277 26.6348C54.2725 26.6348 55.027 26.7858 55.0835 26.4473C55.2672 25.3448 55.0933 24.0721 55.0933 22.9643C55.0933 20.6504 54.7605 18.1348 55.7643 15.9785C56.6853 14.0001 57.8051 12.1502 58.9612 10.2951C59.482 9.45934 60.4416 7.88734 61.3095 7.4534M42.3057 26.4572C42.3057 25.0035 42.2004 23.5282 42.7004 22.1354C43.5021 19.9023 44.4788 17.5675 45.7197 15.5443C46.4227 14.3981 47.1955 13.2352 47.9891 12.1501C48.6666 11.2237 49.5358 10.4857 50.219 9.57478C51.1945 8.27417 51.9337 7.80859 53.485 7.80859C55.7587 7.80859 57.9689 8.1638 60.2439 8.1638M18.5066 60.0246C18.5066 57.0982 18.6617 54.1205 18.3882 51.2035C18.0093 47.1612 16.7309 43.2497 15.4755 39.4083L15.4479 39.3237C14.8332 37.4428 14.0975 34.2882 12.6851 32.7128C11.2898 31.1565 7.96481 32.0063 6.25186 32.4958M30.5838 62.8662C30.5838 60.479 31.2579 57.979 31.5113 55.6042C32.0761 50.3106 32.2965 44.8674 31.7481 39.5605C31.2197 34.4477 30.706 28.5532 28.0874 23.9707C27.4579 22.869 26.658 21.7152 25.5122 21.129C24.3854 20.5525 23.1643 20.2431 21.9798 19.8167C20.2976 19.2111 18.6314 20.3322 17.0858 20.7738M2.87736 32.1405C0.845649 32.3437 2.89562 35.7683 4.43634 34.627C5.19041 34.0684 5.23363 32.8161 5.18623 31.9629C5.16577 31.5946 3.27486 31.7853 2.87736 31.7853M14.9545 19.7082C14.1428 20.0156 12.3482 21.407 13.6422 22.1946C14.1339 22.4939 15.0042 22.7519 15.5663 22.4709C16.9478 21.7801 15.9135 20.5606 14.9545 20.241" stroke="#FFA743" stroke-width="3" stroke-linecap="round"/>
</svg>
